<svg xmlns="http://www.w3.org/2000/svg" width="1600" height="900" viewBox="0 0 1600 900">
<defs><marker id="arrow" markerWidth="10" markerHeight="10" refX="8" refY="3" orient="auto"><path d="M0,0 L0,6 L9,3 z" fill="#4A5568"/></marker></defs>
<rect width="1600" height="900" fill="#FFFFFF"/>
<text x="70" y="65" font-family="Segoe UI,Arial,sans-serif" font-size="42" font-weight="700" text-anchor="start" fill="#17202A">Tokenfall sequence flow</text>
<text x="70" y="100" font-family="Segoe UI,Arial,sans-serif" font-size="20" font-weight="400" text-anchor="start" fill="#5B6573">Infrastructure deployment and one Azure-hosted Luna move</text>
<text x="70" y="150" font-family="Segoe UI,Arial,sans-serif" font-size="28" font-weight="700" text-anchor="start" fill="#17202A">A. Infrastructure / deployment</text>
<rect x="25" y="180" width="190" height="48" rx="10" fill="#DCEBFA" stroke="#4F81BD" stroke-width="2"/>
<text x="120" y="211" font-family="Segoe UI,Arial,sans-serif" font-size="17" font-weight="700" text-anchor="middle" fill="#17202A">Developer / azd</text>
<line x1="120" y1="230" x2="120" y2="420" stroke="#A6A6A6" stroke-width="1.5"/>
<rect x="305" y="180" width="190" height="48" rx="10" fill="#DCEBFA" stroke="#4F81BD" stroke-width="2"/>
<text x="400" y="211" font-family="Segoe UI,Arial,sans-serif" font-size="17" font-weight="700" text-anchor="middle" fill="#17202A">Bicep</text>
<line x1="400" y1="230" x2="400" y2="420" stroke="#A6A6A6" stroke-width="1.5"/>
<rect x="585" y="180" width="190" height="48" rx="10" fill="#F2F2F2" stroke="#A6A6A6" stroke-width="2"/>
<text x="680" y="211" font-family="Segoe UI,Arial,sans-serif" font-size="17" font-weight="700" text-anchor="middle" fill="#17202A">ACR</text>
<line x1="680" y1="230" x2="680" y2="420" stroke="#A6A6A6" stroke-width="1.5"/>
<rect x="865" y="180" width="190" height="48" rx="10" fill="#F2F2F2" stroke="#A6A6A6" stroke-width="2"/>
<text x="960" y="211" font-family="Segoe UI,Arial,sans-serif" font-size="17" font-weight="700" text-anchor="middle" fill="#17202A">Container Apps</text>
<line x1="960" y1="230" x2="960" y2="420" stroke="#A6A6A6" stroke-width="1.5"/>
<rect x="1165" y="180" width="190" height="48" rx="10" fill="#F2F2F2" stroke="#A6A6A6" stroke-width="2"/>
<text x="1260" y="211" font-family="Segoe UI,Arial,sans-serif" font-size="17" font-weight="700" text-anchor="middle" fill="#17202A">Azure services</text>
<line x1="1260" y1="230" x2="1260" y2="420" stroke="#A6A6A6" stroke-width="1.5"/>
<line x1="120" y1="265" x2="400" y2="265" stroke="#4A5568" stroke-width="3" marker-end="url(#arrow)"/><text x="260.0" y="255.0" font-family="Segoe UI,Arial,sans-serif" font-size="16" font-weight="600" text-anchor="middle" fill="#5B6573">azd provision</text>
<line x1="400" y1="310" x2="1260" y2="310" stroke="#4A5568" stroke-width="3" marker-end="url(#arrow)"/><text x="830.0" y="300.0" font-family="Segoe UI,Arial,sans-serif" font-size="16" font-weight="600" text-anchor="middle" fill="#5B6573">Foundry/Luna • Files • monitoring • identity</text>
<line x1="120" y1="355" x2="680" y2="355" stroke="#4A5568" stroke-width="3" marker-end="url(#arrow)"/><text x="400.0" y="345.0" font-family="Segoe UI,Arial,sans-serif" font-size="16" font-weight="600" text-anchor="middle" fill="#5B6573">azd deploy web → build / push</text>
<line x1="680" y1="400" x2="960" y2="400" stroke="#4A5568" stroke-width="3" marker-end="url(#arrow)"/><text x="820.0" y="390.0" font-family="Segoe UI,Arial,sans-serif" font-size="16" font-weight="600" text-anchor="middle" fill="#5B6573">pull image</text>
<line x1="1260" y1="400" x2="960" y2="400" stroke="#4A5568" stroke-width="3" marker-end="url(#arrow)" stroke-dasharray="8 7"/><text x="1110.0" y="390.0" font-family="Segoe UI,Arial,sans-serif" font-size="16" font-weight="600" text-anchor="middle" fill="#5B6573">mount /data + config</text>
<text x="70" y="475" font-family="Segoe UI,Arial,sans-serif" font-size="28" font-weight="700" text-anchor="start" fill="#17202A">B. Azure runtime — one Luna move</text>
<rect x="15" y="505" width="170" height="48" rx="10" fill="#E2F0D9" stroke="#70AD47" stroke-width="2"/>
<text x="100" y="536" font-family="Segoe UI,Arial,sans-serif" font-size="17" font-weight="700" text-anchor="middle" fill="#17202A">Browser</text>
<line x1="100" y1="555" x2="100" y2="850" stroke="#A6A6A6" stroke-width="1.5"/>
<rect x="255" y="505" width="170" height="48" rx="10" fill="#E2F0D9" stroke="#70AD47" stroke-width="2"/>
<text x="340" y="536" font-family="Segoe UI,Arial,sans-serif" font-size="17" font-weight="700" text-anchor="middle" fill="#17202A">Socket.IO</text>
<line x1="340" y1="555" x2="340" y2="850" stroke="#A6A6A6" stroke-width="1.5"/>
<rect x="495" y="505" width="170" height="48" rx="10" fill="#E2F0D9" stroke="#70AD47" stroke-width="2"/>
<text x="580" y="536" font-family="Segoe UI,Arial,sans-serif" font-size="17" font-weight="700" text-anchor="middle" fill="#17202A">Room / Game</text>
<line x1="580" y1="555" x2="580" y2="850" stroke="#A6A6A6" stroke-width="1.5"/>
<rect x="735" y="505" width="170" height="48" rx="10" fill="#FCE4D6" stroke="#C55A11" stroke-width="2"/>
<text x="820" y="536" font-family="Segoe UI,Arial,sans-serif" font-size="17" font-weight="700" text-anchor="middle" fill="#17202A">Local MCP</text>
<line x1="820" y1="555" x2="820" y2="850" stroke="#A6A6A6" stroke-width="1.5"/>
<rect x="975" y="505" width="170" height="48" rx="10" fill="#E4DFEC" stroke="#8064A2" stroke-width="2"/>
<text x="1060" y="536" font-family="Segoe UI,Arial,sans-serif" font-size="17" font-weight="700" text-anchor="middle" fill="#17202A">Luna</text>
<line x1="1060" y1="555" x2="1060" y2="850" stroke="#A6A6A6" stroke-width="1.5"/>
<rect x="1275" y="505" width="170" height="48" rx="10" fill="#F2F2F2" stroke="#A6A6A6" stroke-width="2"/>
<text x="1360" y="536" font-family="Segoe UI,Arial,sans-serif" font-size="17" font-weight="700" text-anchor="middle" fill="#17202A">Tracing / DB</text>
<line x1="1360" y1="555" x2="1360" y2="850" stroke="#A6A6A6" stroke-width="1.5"/>
<line x1="100" y1="590" x2="340" y2="590" stroke="#4A5568" stroke-width="3" marker-end="url(#arrow)"/><text x="220.0" y="580.0" font-family="Segoe UI,Arial,sans-serif" font-size="16" font-weight="600" text-anchor="middle" fill="#5B6573">1  assist(options)</text>
<line x1="340" y1="635" x2="580" y2="635" stroke="#4A5568" stroke-width="3" marker-end="url(#arrow)"/><text x="460.0" y="625.0" font-family="Segoe UI,Arial,sans-serif" font-size="16" font-weight="600" text-anchor="middle" fill="#5B6573">2  admit + snapshot</text>
<line x1="580" y1="680" x2="820" y2="680" stroke="#4A5568" stroke-width="3" marker-end="url(#arrow)"/><text x="700.0" y="670.0" font-family="Segoe UI,Arial,sans-serif" font-size="16" font-weight="600" text-anchor="middle" fill="#5B6573">3  optional MCP lookahead</text>
<line x1="820" y1="708" x2="580" y2="708" stroke="#4A5568" stroke-width="3" marker-end="url(#arrow)"/><text x="700.0" y="698.0" font-family="Segoe UI,Arial,sans-serif" font-size="16" font-weight="600" text-anchor="middle" fill="#5B6573">facts only</text>
<line x1="580" y1="748" x2="1060" y2="748" stroke="#4A5568" stroke-width="3" marker-end="url(#arrow)"/><text x="820.0" y="738.0" font-family="Segoe UI,Arial,sans-serif" font-size="16" font-weight="600" text-anchor="middle" fill="#5B6573">4  policy + board + legal placements</text>
<line x1="1060" y1="788" x2="580" y2="788" stroke="#4A5568" stroke-width="3" marker-end="url(#arrow)"/><text x="820.0" y="778.0" font-family="Segoe UI,Arial,sans-serif" font-size="16" font-weight="600" text-anchor="middle" fill="#5B6573">5  {&quot;placementId&quot;,&quot;tip&quot;}</text>
<line x1="580" y1="828" x2="340" y2="828" stroke="#4A5568" stroke-width="3" marker-end="url(#arrow)"/><text x="460.0" y="818.0" font-family="Segoe UI,Arial,sans-serif" font-size="16" font-weight="600" text-anchor="middle" fill="#5B6573">6  validated insight</text>
<line x1="340" y1="856" x2="100" y2="856" stroke="#4A5568" stroke-width="3" marker-end="url(#arrow)"/><text x="220.0" y="846.0" font-family="Segoe UI,Arial,sans-serif" font-size="16" font-weight="600" text-anchor="middle" fill="#5B6573">7  execute placement.path</text>
<line x1="340" y1="875" x2="580" y2="875" stroke="#4A5568" stroke-width="3" marker-end="url(#arrow)" stroke-dasharray="8 7"/><text x="460.0" y="865.0" font-family="Segoe UI,Arial,sans-serif" font-size="16" font-weight="600" text-anchor="middle" fill="#5B6573">8  flush inputs</text>
<line x1="580" y1="875" x2="1360" y2="875" stroke="#4A5568" stroke-width="3" marker-end="url(#arrow)" stroke-dasharray="8 7"/><text x="970.0" y="865.0" font-family="Segoe UI,Arial,sans-serif" font-size="16" font-weight="600" text-anchor="middle" fill="#5B6573">persist + OTel spans</text>
</svg>